<?xml version="1.0" encoding="utf-8"?>
<!-- Generator: Adobe Illustrator 27.5.0, SVG Export Plug-In . SVG Version: 6.00 Build 0)  -->
<svg version="1.1" xmlns="http://www.w3.org/2000/svg" xmlns:xlink="http://www.w3.org/1999/xlink" x="0px" y="0px"
	 viewBox="0 0 500 500" style="enable-background:new 0 0 500 500;" xml:space="preserve">
<g id="Background_Complete">
	<g>
		<g>
			<rect y="382.398" style="fill:#EBEBEB;" width="500" height="0.25"/>
			<path style="fill:#EBEBEB;" d="M237.014,337.8H43.915c-3.147,0-5.708-2.561-5.708-5.708V60.66c0-3.147,2.561-5.708,5.708-5.708
				h193.099c3.146,0,5.707,2.561,5.707,5.708v271.432C242.721,335.239,240.16,337.8,237.014,337.8z M43.915,55.203
				c-3.01,0-5.458,2.448-5.458,5.458v271.432c0,3.01,2.448,5.458,5.458,5.458h193.099c3.009,0,5.457-2.448,5.457-5.458V60.66
				c0-3.009-2.448-5.458-5.457-5.458H43.915z"/>
			<path style="fill:#EBEBEB;" d="M453.31,337.8H260.212c-3.147,0-5.707-2.561-5.707-5.708V60.66c0-3.147,2.561-5.708,5.707-5.708
				H453.31c3.148,0,5.708,2.561,5.708,5.708v271.432C459.019,335.239,456.458,337.8,453.31,337.8z M260.212,55.203
				c-3.009,0-5.457,2.448-5.457,5.458v271.432c0,3.01,2.448,5.458,5.457,5.458H453.31c3.01,0,5.458-2.448,5.458-5.458V60.66
				c0-3.009-2.448-5.458-5.458-5.458H260.212z"/>
		</g>
		<g>
			<rect x="423.904" y="398.494" style="fill:#EBEBEB;" width="25.997" height="0.25"/>
			<rect x="311" y="401.208" style="fill:#EBEBEB;" width="45.027" height="0.25"/>
			<rect x="362.111" y="389.208" style="fill:#EBEBEB;" width="60.792" height="0.25"/>
			<rect x="52.459" y="390.888" style="fill:#EBEBEB;" width="19.235" height="0.25"/>
			<rect x="80.597" y="390.888" style="fill:#EBEBEB;" width="55.292" height="0.25"/>
			<rect x="169.667" y="395.111" style="fill:#EBEBEB;" width="74.467" height="0.25"/>
		</g>
	</g>
	<g>
		<g>
			<rect x="46.238" y="309.023" style="fill:#FAFAFA;" width="21.202" height="73.375"/>
			<rect x="64.805" y="325.118" style="fill:#FAFAFA;" width="21.202" height="57.28"/>
			<rect x="78.362" y="277.915" style="fill:#FAFAFA;" width="21.202" height="104.483"/>
			<rect x="92.452" y="193.203" style="fill:#FAFAFA;" width="21.202" height="189.195"/>
			<rect x="109.201" y="207.929" style="fill:#FAFAFA;" width="56.893" height="174.469"/>
		</g>
		<g>
			
				<rect x="387.273" y="332.179" transform="matrix(-1 -1.224647e-16 1.224647e-16 -1 798.7699 714.5773)" style="fill:#FAFAFA;" width="24.223" height="50.219"/>
			
				<rect x="366.061" y="343.195" transform="matrix(-1 -1.224647e-16 1.224647e-16 -1 756.3447 725.593)" style="fill:#FAFAFA;" width="24.223" height="39.204"/>
			
				<rect x="350.571" y="310.888" transform="matrix(-1 -1.224647e-16 1.224647e-16 -1 725.3654 693.2861)" style="fill:#FAFAFA;" width="24.223" height="71.51"/>
			
				<rect x="334.473" y="252.909" transform="matrix(-1 -1.224647e-16 1.224647e-16 -1 693.1701 635.3074)" style="fill:#FAFAFA;" width="24.223" height="129.489"/>
		</g>
		<g>
			<g>
				<rect x="273.168" y="224.213" style="fill:#F0F0F0;" width="74.332" height="158.185"/>
				<g>
					<rect x="336.881" y="230.843" style="fill:#F5F5F5;" width="3.54" height="19.25"/>
					<rect x="336.881" y="260.946" style="fill:#F5F5F5;" width="3.54" height="19.25"/>
					<rect x="336.881" y="291.049" style="fill:#F5F5F5;" width="3.54" height="19.25"/>
					<rect x="336.881" y="321.152" style="fill:#F5F5F5;" width="3.54" height="19.25"/>
					<rect x="336.881" y="351.255" style="fill:#F5F5F5;" width="3.54" height="19.25"/>
					<rect x="324.339" y="230.843" style="fill:#F5F5F5;" width="3.54" height="19.25"/>
					<rect x="324.339" y="260.946" style="fill:#F5F5F5;" width="3.54" height="19.25"/>
					<rect x="324.339" y="291.049" style="fill:#F5F5F5;" width="3.54" height="19.25"/>
					<rect x="324.339" y="321.152" style="fill:#F5F5F5;" width="3.54" height="19.25"/>
					<rect x="324.339" y="351.255" style="fill:#F5F5F5;" width="3.54" height="19.25"/>
					<rect x="311.797" y="230.843" style="fill:#F5F5F5;" width="3.54" height="19.25"/>
					<rect x="311.797" y="260.946" style="fill:#F5F5F5;" width="3.54" height="19.25"/>
					<rect x="311.797" y="291.049" style="fill:#F5F5F5;" width="3.54" height="19.25"/>
					<rect x="311.797" y="321.152" style="fill:#F5F5F5;" width="3.54" height="19.25"/>
					<rect x="311.797" y="351.255" style="fill:#F5F5F5;" width="3.54" height="19.25"/>
					<rect x="299.255" y="230.843" style="fill:#F5F5F5;" width="3.54" height="19.25"/>
					<rect x="299.255" y="260.946" style="fill:#F5F5F5;" width="3.54" height="19.25"/>
					<rect x="299.255" y="291.049" style="fill:#F5F5F5;" width="3.54" height="19.25"/>
					<rect x="299.255" y="321.152" style="fill:#F5F5F5;" width="3.54" height="19.25"/>
					<rect x="299.255" y="351.255" style="fill:#F5F5F5;" width="3.54" height="19.25"/>
					<rect x="286.713" y="230.843" style="fill:#F5F5F5;" width="3.54" height="19.25"/>
					<rect x="286.713" y="260.946" style="fill:#F5F5F5;" width="3.54" height="19.25"/>
					<rect x="286.713" y="291.049" style="fill:#F5F5F5;" width="3.54" height="19.25"/>
					<rect x="286.713" y="321.152" style="fill:#F5F5F5;" width="3.54" height="19.25"/>
					<rect x="286.713" y="351.255" style="fill:#F5F5F5;" width="3.54" height="19.25"/>
				</g>
				<polygon style="opacity:0.5;fill:#E0E0E0;" points="273.168,224.213 288.483,224.213 295.143,382.398 273.168,382.398 				"/>
			</g>
			<g>
				<polygon style="fill:#F0F0F0;" points="236.628,163.09 280.709,171.432 280.709,382.398 236.628,382.398 				"/>
				<rect x="201.363" y="163.09" style="fill:#E6E6E6;" width="35.265" height="219.308"/>
				
					<rect x="201.363" y="181.262" transform="matrix(-1 -1.224647e-16 1.224647e-16 -1 482.072 363.6468)" style="fill:#E0E0E0;" width="79.347" height="1.123"/>
				
					<rect x="201.363" y="193.203" transform="matrix(-1 -1.224647e-16 1.224647e-16 -1 482.072 387.5292)" style="fill:#E0E0E0;" width="79.347" height="1.123"/>
				
					<rect x="201.363" y="205.144" transform="matrix(-1 -1.224647e-16 1.224647e-16 -1 482.072 411.4117)" style="fill:#E0E0E0;" width="79.347" height="1.123"/>
				
					<rect x="201.363" y="217.085" transform="matrix(-1 -1.224647e-16 1.224647e-16 -1 482.072 435.2942)" style="fill:#E0E0E0;" width="79.347" height="1.123"/>
				
					<rect x="201.363" y="229.027" transform="matrix(-1 -1.224647e-16 1.224647e-16 -1 482.072 459.1767)" style="fill:#E0E0E0;" width="79.347" height="1.123"/>
				
					<rect x="201.363" y="240.968" transform="matrix(-1 -1.224647e-16 1.224647e-16 -1 482.072 483.0592)" style="fill:#E0E0E0;" width="79.347" height="1.123"/>
				
					<rect x="201.363" y="252.909" transform="matrix(-1 -1.224647e-16 1.224647e-16 -1 482.072 506.9416)" style="fill:#E0E0E0;" width="79.347" height="1.123"/>
				
					<rect x="201.363" y="264.85" transform="matrix(-1 -1.224647e-16 1.224647e-16 -1 482.072 530.8241)" style="fill:#E0E0E0;" width="79.347" height="1.123"/>
				
					<rect x="201.363" y="276.792" transform="matrix(-1 -1.224647e-16 1.224647e-16 -1 482.072 554.7066)" style="fill:#E0E0E0;" width="79.347" height="1.123"/>
				
					<rect x="201.363" y="288.733" transform="matrix(-1 -1.224647e-16 1.224647e-16 -1 482.072 578.5891)" style="fill:#E0E0E0;" width="79.347" height="1.123"/>
				
					<rect x="201.363" y="300.674" transform="matrix(-1 -1.224647e-16 1.224647e-16 -1 482.072 602.4716)" style="fill:#E0E0E0;" width="79.347" height="1.123"/>
				
					<rect x="201.363" y="312.615" transform="matrix(-1 -1.224647e-16 1.224647e-16 -1 482.072 626.354)" style="fill:#E0E0E0;" width="79.347" height="1.123"/>
				
					<rect x="201.363" y="324.557" transform="matrix(-1 -1.224647e-16 1.224647e-16 -1 482.072 650.2365)" style="fill:#E0E0E0;" width="79.347" height="1.123"/>
				
					<rect x="201.363" y="336.498" transform="matrix(-1 -1.224647e-16 1.224647e-16 -1 482.072 674.119)" style="fill:#E0E0E0;" width="79.347" height="1.123"/>
				
					<rect x="201.363" y="348.439" transform="matrix(-1 -1.224647e-16 1.224647e-16 -1 482.072 698.0015)" style="fill:#E0E0E0;" width="79.347" height="1.123"/>
				
					<rect x="201.363" y="360.38" transform="matrix(-1 -1.224647e-16 1.224647e-16 -1 482.072 721.884)" style="fill:#E0E0E0;" width="79.347" height="1.123"/>
				
					<rect x="201.363" y="372.322" transform="matrix(-1 -1.224647e-16 1.224647e-16 -1 482.072 745.7664)" style="fill:#E0E0E0;" width="79.347" height="1.123"/>
			</g>
			<g>
				<rect x="145.203" y="116.481" style="fill:#F0F0F0;" width="36.871" height="265.917"/>
				<polygon style="fill:#FAFAFA;" points="182.074,116.481 145.203,116.481 158.772,93 211.571,93 				"/>
				<polygon style="fill:#EBEBEB;" points="182.074,116.481 211.571,93 211.571,382.398 182.074,382.398 				"/>
				<rect x="145.203" y="128.871" style="fill:#E0E0E0;" width="66.368" height="1.416"/>
				<rect x="145.203" y="143.923" style="fill:#E0E0E0;" width="66.368" height="1.416"/>
				<rect x="145.203" y="158.974" style="fill:#E0E0E0;" width="66.368" height="1.416"/>
				<rect x="145.203" y="174.026" style="fill:#E0E0E0;" width="66.368" height="1.416"/>
				<rect x="145.203" y="189.078" style="fill:#E0E0E0;" width="66.368" height="1.416"/>
				<rect x="145.203" y="204.129" style="fill:#E0E0E0;" width="66.368" height="1.416"/>
				<rect x="145.203" y="219.181" style="fill:#E0E0E0;" width="66.368" height="1.416"/>
				<rect x="145.203" y="234.232" style="fill:#E0E0E0;" width="66.368" height="1.416"/>
				<rect x="145.203" y="249.284" style="fill:#E0E0E0;" width="66.368" height="1.416"/>
				<rect x="145.203" y="264.336" style="fill:#E0E0E0;" width="66.368" height="1.416"/>
				<rect x="145.203" y="279.387" style="fill:#E0E0E0;" width="66.368" height="1.416"/>
				<rect x="145.203" y="294.439" style="fill:#E0E0E0;" width="66.368" height="1.416"/>
				<rect x="145.203" y="309.491" style="fill:#E0E0E0;" width="66.368" height="1.416"/>
				<rect x="145.203" y="324.542" style="fill:#E0E0E0;" width="66.368" height="1.416"/>
				<rect x="145.203" y="339.594" style="fill:#E0E0E0;" width="66.368" height="1.416"/>
				<rect x="145.203" y="354.645" style="fill:#E0E0E0;" width="66.368" height="1.416"/>
				<rect x="145.203" y="369.697" style="fill:#E0E0E0;" width="66.368" height="1.416"/>
			</g>
			<g>
				<rect x="98.546" y="245.157" style="fill:#F0F0F0;" width="40.249" height="137.242"/>
				<rect x="106.469" y="252.251" style="fill:#E6E6E6;" width="6.46" height="22.027"/>
				<rect x="122.315" y="252.251" style="fill:#E6E6E6;" width="6.46" height="22.027"/>
				<rect x="106.469" y="280.776" style="fill:#E6E6E6;" width="6.46" height="22.026"/>
				<rect x="122.315" y="280.776" style="fill:#E6E6E6;" width="6.46" height="22.026"/>
				<rect x="106.469" y="309.301" style="fill:#E6E6E6;" width="6.46" height="22.026"/>
				<rect x="122.315" y="309.301" style="fill:#E6E6E6;" width="6.46" height="22.026"/>
				<rect x="106.469" y="337.826" style="fill:#E6E6E6;" width="6.46" height="22.026"/>
				<rect x="122.315" y="337.826" style="fill:#E6E6E6;" width="6.46" height="22.026"/>
				<polygon style="fill:#FFFFFF;" points="138.795,245.157 98.546,245.157 107.987,235.648 148.236,235.648 				"/>
				<polygon style="fill:#E6E6E6;" points="138.795,245.157 148.236,235.648 157.677,245.157 157.677,382.398 138.795,382.398 				
					"/>
			</g>
		</g>
	</g>
</g>
<g id="Background_Simple" style="display:none;">
	<g style="display:inline;">
		<path style="fill:#407BFF;" d="M186.216,195.142c58.876-61.555,47.271-160.678,134.237-96.38
			c44.253,32.718,89.847,16.036,95.161,61.228c3.648,31.026-27.611,90.605-49.053,112.317
			c-32.301,32.707-66.511,25.058-105.287,19.813c-43.883-5.936-71.09,17.869-112.118,21.27
			c-29.938,2.481-71.566-27.697-64.207-64.939C93.966,202.818,161.129,221.371,186.216,195.142z"/>
		<path style="opacity:0.9;fill:#FFFFFF;" d="M186.216,195.142c58.876-61.555,47.271-160.678,134.237-96.38
			c44.253,32.718,89.847,16.036,95.161,61.228c3.648,31.026-27.611,90.605-49.053,112.317
			c-32.301,32.707-66.511,25.058-105.287,19.813c-43.883-5.936-71.09,17.869-112.118,21.27
			c-29.938,2.481-71.566-27.697-64.207-64.939C93.966,202.818,161.129,221.371,186.216,195.142z"/>
	</g>
</g>
<g id="Shadow_1_">
	<ellipse id="_x3C_Path_x3E__331_" style="fill:#F5F5F5;" cx="250" cy="416.238" rx="193.889" ry="11.323"/>
</g>
<g id="Smartphone">
	<g>
		<path style="fill:#407BFF;" d="M289.416,114.583h127.534c5.13,0,9.289,4.159,9.289,9.289v283.077c0,5.13-4.159,9.289-9.289,9.289
			H289.416c-5.13,0-9.289-4.159-9.289-9.289V123.872C280.127,118.742,284.286,114.583,289.416,114.583z"/>
		<g>
			<path style="fill:#407BFF;" d="M283.642,114.583h127.534c5.13,0,9.289,4.159,9.289,9.289v283.077c0,5.13-4.159,9.289-9.289,9.289
				H283.642c-5.13,0-9.289-4.159-9.289-9.289V123.872C274.353,118.742,278.512,114.583,283.642,114.583z"/>
			<path style="opacity:0.7;fill:#FFFFFF;" d="M283.642,114.583h127.534c5.13,0,9.289,4.159,9.289,9.289v283.077
				c0,5.13-4.159,9.289-9.289,9.289H283.642c-5.13,0-9.289-4.159-9.289-9.289V123.872
				C274.353,118.742,278.512,114.583,283.642,114.583z"/>
		</g>
		<g style="opacity:0.9;">
			<rect x="295.765" y="114.583" style="fill:#FFFFFF;" width="7.908" height="301.655"/>
			<rect x="382.521" y="114.583" style="fill:#FFFFFF;" width="4.85" height="301.655"/>
			<polygon style="fill:#FFFFFF;" points="274.353,180.103 274.353,188.011 420.464,178.955 420.464,171.047 			"/>
			
				<rect x="343.455" y="297.868" transform="matrix(6.123234e-17 -1 1 6.123234e-17 -23.5149 718.332)" style="fill:#FFFFFF;" width="7.908" height="146.111"/>
			
				<rect x="345.255" y="148.684" transform="matrix(6.123234e-17 -1 1 6.123234e-17 125.6694 569.1478)" style="fill:#FFFFFF;" width="4.308" height="146.111"/>
			<polygon style="fill:#FFFFFF;" points="274.353,321.562 274.353,330.617 420.465,281.178 420.465,272.122 			"/>
			<polygon style="fill:#FFFFFF;" points="325.559,114.583 317.651,114.583 338.908,416.238 346.816,416.238 			"/>
		</g>
	</g>
</g>
<g id="Car">
	<g>
		<g>
			<path style="fill:#407BFF;" d="M394.994,385.294H221.049v-54.222h153.333l14.306,11.626c3.989,3.242,6.305,8.108,6.305,13.248
				V385.294z"/>
			<path style="opacity:0.5;" d="M394.994,385.294H221.049v-54.222h153.333l14.306,11.626c3.989,3.242,6.305,8.108,6.305,13.248
				V385.294z"/>
		</g>
		<g>
			<path style="fill:#263238;" d="M220.049,380.405c0-19.79,8.973-35.833,20.041-35.833h-21.26
				c-11.068,0-20.041,16.043-20.041,35.833c0,19.79,8.973,35.833,20.041,35.833h21.26
				C229.022,416.238,220.049,400.195,220.049,380.405z"/>
			<ellipse style="fill:#263238;" cx="240.09" cy="380.405" rx="20.041" ry="35.833"/>
			<ellipse style="fill:#FFFFFF;" cx="241.702" cy="380.405" rx="14.208" ry="27.942"/>
		</g>
		<g>
			<path style="fill:#263238;" d="M104.536,380.405c0-19.79,8.972-35.833,20.041-35.833h-21.26
				c-11.068,0-20.041,16.043-20.041,35.833c0,19.79,8.973,35.833,20.041,35.833h21.26
				C113.509,416.238,104.536,400.195,104.536,380.405z"/>
			<ellipse style="fill:#263238;" cx="124.577" cy="380.405" rx="20.041" ry="35.833"/>
		</g>
		<g>
			<path style="fill:#263238;" d="M357.383,380.405c0-19.79,8.973-35.833,20.041-35.833h-21.26
				c-11.068,0-20.041,16.043-20.041,35.833c0,19.79,8.973,35.833,20.041,35.833h21.26
				C366.355,416.238,357.383,400.195,357.383,380.405z"/>
			<ellipse style="fill:#263238;" cx="377.423" cy="380.405" rx="20.041" ry="35.833"/>
			<ellipse style="fill:#FFFFFF;" cx="379.035" cy="380.405" rx="14.208" ry="27.942"/>
		</g>
		<g>
			<path style="fill:#407BFF;" d="M196.366,390.405H170.66l-1.436-1.436c-1.482-1.482-3.492-2.314-5.587-2.314H99.382
				c-2.095,0-4.105,0.832-5.587,2.314l-0.873,0.873h-2.344c-7.623,0-13.802-6.179-13.802-13.802v-21.191h145.828l-11.618,25.224
				C208.793,386.266,202.936,390.405,196.366,390.405z"/>
			<path style="opacity:0.2;" d="M196.366,390.405H170.66l-1.436-1.436c-1.482-1.482-3.492-2.314-5.587-2.314H99.382
				c-2.095,0-4.105,0.832-5.587,2.314l-0.873,0.873h-2.344c-7.623,0-13.802-6.179-13.802-13.802v-21.191h145.828l-11.618,25.224
				C208.793,386.266,202.936,390.405,196.366,390.405z"/>
		</g>
		<path style="fill:#263238;" d="M348.16,264.683c-0.086,0-0.173-0.021-0.252-0.068c-0.238-0.139-0.319-0.445-0.18-0.684l7-12
			c0.139-0.239,0.445-0.32,0.684-0.18c0.238,0.139,0.319,0.445,0.18,0.684l-7,12C348.499,264.594,348.332,264.683,348.16,264.683z"
			/>
		<path style="fill:#407BFF;" d="M385.08,324.377v-13.639c0-7.167-10.419-41-24.753-47.333c-14.333-6.333-49-9.167-70.833-8
			c-21.833,1.167-50.96,46.833-50.96,46.833l3.168,39.278c4.436,0,18.574-1.333,20.648,37.526c0.303,5.676,4.97,10.14,10.654,10.14
			h76.456c5.314,0,9.817-3.904,10.562-9.165c1.961-13.848,7.219-38.507,19.805-38.507c8.833,0,15.167,7.561,15.167,16.228l0,0
			c0-9.524-2.315-18.905-6.747-27.335L385.08,324.377z"/>
		<g>
			<path style="fill:#407BFF;" d="M209.494,255.405c-39.778,0-84.833,46.833-84.833,46.833h113.873c0,0,29.127-45.667,50.96-46.833
				H209.494z"/>
			<path style="opacity:0.4;fill:#FFFFFF;" d="M211.933,255.405c-33.507,0-68.643,33.23-78.889,43.708
				c-1.14,1.165-0.316,3.125,1.314,3.125h91.86c7.484,0,14.535-3.543,18.962-9.577c9.874-13.459,28.909-36.433,44.313-37.256
				H211.933z"/>
		</g>
		<path style="fill:#407BFF;" d="M238.534,302.238l-42.068,33.194l-113.19-0.361c0,0-6.5,9.445-6.5,19.778
			c7.056,0,137.607,0,145.829,0c2.389-6.333,10.764-13.333,19.097-13.333C241.702,329.738,238.534,302.238,238.534,302.238z"/>
		<path style="opacity:0.2;" d="M211.003,325.649c-0.242,0-0.456-0.178-0.493-0.425c-0.042-0.273,0.146-0.528,0.419-0.569
			c12.402-1.88,21.69-7.943,27.299-12.699c3.178-2.692,3.801-7.31,1.45-10.74c-0.156-0.227-0.099-0.538,0.13-0.694
			c0.228-0.156,0.538-0.098,0.694,0.13c2.643,3.854,1.942,9.042-1.628,12.068c-5.707,4.839-15.161,11.009-27.795,12.924
			C211.054,325.647,211.028,325.649,211.003,325.649z"/>
		<path style="fill:#407BFF;" d="M83.276,335.071c0,0,19.884-23.167,41.384-32.833h113.873l-42.068,33.194L83.276,335.071z"/>
		<rect x="96.66" y="335.071" style="fill:#263238;" width="74.667" height="2.167"/>
		<path style="fill:#FFFFFF;" d="M169.782,330.728l4.015-4.015c0.9-0.9,2.039-1.522,3.282-1.793l30.215-6.58
			c1.062-0.231,2.164-0.198,3.211,0.096l1.614,0.454c4.699,1.322,6.413,7.091,3.199,10.764l-6.495,7.422
			c-1.12,1.281-2.69,2.082-4.385,2.239l-29.349,2.719c-1.962,0.182-3.902-0.517-5.298-1.907l0,0
			C167.189,337.536,167.185,333.325,169.782,330.728z"/>
		<path style="fill:#FFFFFF;" d="M98.774,332.849l-3.319-6.187c-0.466-0.868-1.158-1.594-2.003-2.1l0,0
			c-1.631-0.977-3.653-1.035-5.337-0.152l-2.509,1.316c-1.24,0.65-2.183,1.752-2.633,3.078l-1.537,4.529
			c-1.077,3.173,0.935,6.558,4.237,7.128l6.907,1.193c2.311,0.399,4.619-0.724,5.731-2.789l0.458-0.851
			C99.638,336.402,99.64,334.462,98.774,332.849z"/>
		<path style="opacity:0.4;fill:#FFFFFF;" d="M261.794,303.571h105.277c3.836,0,6.577-3.694,5.478-7.37
			c-2.395-8.008-7.011-20.509-13.909-26.89c-0.766-0.708-1.712-1.182-2.732-1.398c-12.408-2.631-32.36-4.382-47.161-5.398
			c-13.576-0.932-26.874,4.121-36.406,13.834c-5.021,5.116-10.435,11.381-15.186,18.532
			C254.685,298.597,257.331,303.571,261.794,303.571z"/>
		<path style="fill:#263238;" d="M193.716,366.571c0,3.283-3.358,5.945-7.5,5.945c-4.142,0-7.5-2.661-7.5-5.945
			c0-3.283,3.358-5.944,7.5-5.944C190.358,360.627,193.716,363.288,193.716,366.571z"/>
		<path style="fill:#263238;" d="M133.292,330.533c2.461,0,3.662,2.517,2.682,5.622c-0.979,3.105-3.769,5.622-6.23,5.622
			s-3.662-2.517-2.682-5.622C128.042,333.05,130.831,330.533,133.292,330.533z"/>
		<path style="fill:#263238;" d="M82.827,366.571c0,3.283-0.945,5.945-2.111,5.945c-1.166,0-2.111-2.661-2.111-5.945
			c0-3.283,0.945-5.944,2.111-5.944C81.882,360.627,82.827,363.288,82.827,366.571z"/>
		<path style="fill:#263238;" d="M258.549,302.62v-3.37c0-4.128,3.794-7.212,7.835-6.37l12.819,2.672
			c3.017,0.629,5.179,3.288,5.179,6.37v0.697c0,3.594-2.913,6.507-6.507,6.507h-12.819
			C261.463,309.127,258.549,306.214,258.549,302.62z"/>
		<path style="fill:#263238;" d="M326.001,263.91c0,0-1.71-0.171-4.694-0.434c13.187,27.013,9.826,40.096,9.826,40.096h10.056
			C341.29,287.127,326.001,263.91,326.001,263.91z"/>
		<path style="opacity:0.2;fill:#407BFF;" d="M214.843,291.483c-0.431,4.4-4.116,7.755-8.537,7.755h-51.822
			c-3.782,0-5.152-4.214-2.416-7.361c5.26-6.049,10.924-11.346,16.06-15.678c9.757-8.216,21.878-12.488,33.207-11.701
			c1.38,0.097,2.815,0.201,4.288,0.314c3.79,0.288,6.94,3.053,7.734,6.771C215.217,280.293,215.291,286.91,214.843,291.483z"/>
		<path style="opacity:0.2;" d="M332.327,382.071c-0.276,0-0.5-0.224-0.5-0.5c0-10.119,5.158-51.847,6.512-58.105
			c1.311-6.07,1.315-12.842,0.009-17.253c-0.078-0.265,0.072-0.543,0.338-0.621c0.264-0.076,0.542,0.073,0.621,0.338
			c1.351,4.559,1.354,11.525,0.009,17.747c-1.348,6.237-6.488,47.813-6.488,57.895C332.827,381.848,332.603,382.071,332.327,382.071
			z"/>
		<path style="opacity:0.2;" d="M331,323.96h-12.194c-1.016,0-1.7-0.831-1.521-1.847l0.25-1.417c0.18-1.016,1.158-1.847,2.174-1.847
			h12.194c1.016,0,1.7,0.831,1.521,1.847l-0.25,1.417C332.995,323.129,332.016,323.96,331,323.96z"/>
	</g>
</g>
<g id="Pin">
	<g>
		<path style="fill:#407BFF;" d="M367.88,172.479h-1c0-2.557-0.367-5.086-1.092-7.517l0.959-0.285
			C367.499,167.2,367.88,169.825,367.88,172.479z M363.567,159.694c-4.666-8.379-13.504-13.584-23.065-13.584v-1
			c9.924,0,19.096,5.402,23.938,14.098L363.567,159.694z"/>
		<path style="fill:#407BFF;" d="M340.503,148.611c-13.181,0-23.867,10.686-23.867,23.867c0,22.99,23.867,38.76,23.867,38.76
			s23.878-15.77,23.878-38.76C364.38,159.297,353.694,148.611,340.503,148.611z M340.503,183.725
			c-6.152,0-11.141-4.989-11.141-11.141c0-6.162,4.989-11.141,11.141-11.141c6.162,0,11.151,4.978,11.151,11.141
			C351.654,178.736,346.665,183.725,340.503,183.725z"/>
	</g>
</g>
<g id="Character_1_">
	<g>
		<polygon style="fill:#B55B52;" points="297.974,414.717 304.011,414.622 305.753,400.622 299.716,400.717 		"/>
		<polygon style="fill:#B55B52;" points="326.798,414.275 332.663,412.477 329.024,399.21 323.159,401.007 		"/>
		<path style="fill:#263238;" d="M332.482,410.72l-6.539,3.374c-0.219,0.113-0.33,0.363-0.268,0.602l1.401,5.314
			c0.145,0.551,0.776,0.819,1.277,0.548c2.085-1.122,3.556-2.037,6.206-3.405c1.63-0.841,6.634-3.209,8.885-4.371
			c2.202-1.136,1.396-3.539,0.371-3.265c-4.599,1.229-8.356,1.589-10.293,1.083C333.173,410.509,332.802,410.555,332.482,410.72z"/>
		<path style="fill:#263238;" d="M304.134,413.924l-6.59,0.103c-0.247,0.004-0.458,0.179-0.507,0.42l-1.108,5.383
			c-0.115,0.558,0.316,1.078,0.885,1.06c2.377-0.078,5.81-0.271,8.797-0.318c3.494-0.055,4.507,0.089,8.604,0.024
			c2.477-0.039,3.126-2.554,2.085-2.765c-4.737-0.959-6.587-1.009-10.706-3.46C305.148,414.105,304.655,413.916,304.134,413.924z"/>
		<path style="fill:#B55B52;" d="M313.301,231.054c1.369,2.746,2.914,5.658,4.467,8.424c1.569,2.783,3.192,5.528,4.944,8.123
			c0.449,0.633,0.869,1.304,1.331,1.919l1.122,1.538c0.238,0.302,0.367,0.447,0.4,0.516c0.033,0.066,0.062,0.164,0.352,0.184
			c0.574,0.041,1.78-0.562,2.856-1.399c0.549-0.422,1.105-0.901,1.66-1.407c0.538-0.498,1.096-1.099,1.572-1.577l3.948,2.224
			c-0.359,0.959-0.736,1.734-1.184,2.573c-0.438,0.826-0.942,1.631-1.535,2.415c-0.586,0.792-1.272,1.551-2.104,2.283
			c-0.829,0.73-1.846,1.414-3.169,1.892c-1.301,0.487-2.996,0.65-4.562,0.249c-1.572-0.385-2.868-1.195-3.821-2.042
			c-0.268-0.214-0.458-0.428-0.684-0.648l-0.324-0.331l-0.23-0.26l-0.878-1.006c-0.593-0.669-1.129-1.36-1.691-2.045
			c-2.171-2.77-4.109-5.647-5.901-8.597c-0.881-1.482-1.753-2.967-2.547-4.495c-0.809-1.54-1.581-3.013-2.325-4.691L313.301,231.054
			z"/>
		<g>
			<g>
				<path style="fill:#407BFF;" d="M302.476,231.091c-1.627,5.536,9.828,20.629,9.828,20.629l11.551-7.433
					c0,0-3.395-7.701-8.004-13.573C311.118,224.685,304.262,225.015,302.476,231.091z"/>
			</g>
			<g style="opacity:0.2;">
				<path d="M302.476,231.091c-1.627,5.536,9.828,20.629,9.828,20.629l11.551-7.433c0,0-3.395-7.701-8.004-13.573
					C311.118,224.685,304.262,225.015,302.476,231.091z"/>
			</g>
		</g>
		<path style="opacity:0.2;" d="M309.517,237.59c2.376,1.015,5.872,6.737,7.692,10.978l-4.902,3.15c0,0-4.414-5.812-7.369-11.549
			C306.487,238.47,308.261,237.056,309.517,237.59z"/>
		<path style="fill:#B55B52;" d="M331.322,248.463l4.181-6.761l3.643,5.825c0,0-1.336,2.553-4.025,3.288L331.322,248.463z"/>
		<path style="fill:#B55B52;" d="M341.328,241.774l-0.014,2.091c-0.005,0.651-0.231,1.281-0.641,1.786l-1.526,1.877l-3.643-5.825
			l3.767-1.377C340.274,239.958,341.335,240.706,341.328,241.774z"/>
		<polygon style="fill:#407BFF;" points="337.254,250.412 330.674,250.312 334.315,236.682 340.895,236.783 		"/>
		<polygon style="fill:#263238;" points="337.92,250.412 331.34,250.312 334.981,236.682 341.561,236.783 		"/>
		<polygon style="opacity:0.2;" points="305.751,400.626 304.854,407.842 298.815,407.937 299.711,400.721 		"/>
		<polygon style="opacity:0.2;" points="323.159,401.011 329.026,399.213 330.899,406.053 325.031,407.851 		"/>
		<g>
			<g>
				<path style="fill:#407BFF;" d="M276.955,234.018c4.926,21.225,3.853,42.267,4.395,46.807c4.721-0.343,22.501-1.668,32.194-2.392
					c3.087-34.491-4.229-52-4.229-52s-2.07-0.402-4.885-0.691c-0.883-0.09-1.835-0.17-2.826-0.222
					c-0.548-0.033-1.104-0.051-1.668-0.062c-3.642-0.06-9.59,0.519-13.687,1.02c-0.858,0.107-1.732,0.236-2.576,0.374
					c-0.784,0.134-1.553,0.276-2.277,0.421c-0.033,0.007-0.066,0.013-0.098,0.02C278.217,227.91,276.245,230.96,276.955,234.018z"/>
			</g>
			<g style="opacity:0.2;">
				<path d="M276.955,234.018c4.926,21.225,3.853,42.267,4.395,46.807c4.721-0.343,22.501-1.668,32.194-2.392
					c3.087-34.491-4.229-52-4.229-52s-2.07-0.402-4.885-0.691c-0.883-0.09-1.835-0.17-2.826-0.222
					c-0.548-0.033-1.104-0.051-1.668-0.062c-3.642-0.06-9.59,0.519-13.687,1.02c-0.858,0.107-1.732,0.236-2.576,0.374
					c-0.784,0.134-1.553,0.276-2.277,0.421c-0.033,0.007-0.066,0.013-0.098,0.02C278.217,227.91,276.245,230.96,276.955,234.018z"/>
			</g>
		</g>
		<path style="opacity:0.2;" d="M282.446,238.481l-3.693,4.752c0.01,0.062,0.021,0.113,0.021,0.175
			c0.514,3.219,0.915,6.377,1.214,9.412C283.516,248.448,282.991,240.558,282.446,238.481z"/>
		<path style="fill:#B55B52;" d="M287.85,217.061c0.77,3.242,0.724,6.843-1.601,9.415c2.57,2.201,5.903,4.716,11.145,4.511
			c5.242-0.205,4.061-3.734,2.539-5.529c-4.479-0.723-4.486-3.632-4.521-6.827c-0.007-0.666-0.441-1.253-1.075-1.456l-4.918-1.578
			C288.504,215.303,287.628,216.124,287.85,217.061z"/>
		<path style="fill:#407BFF;" d="M302.038,251.67c-2.696,0-5.188-3.24-5.676-7.382c-0.3-2.554,0.255-4.907,1.486-6.296
			c0.708-0.798,1.593-1.222,2.56-1.225c0.002,0,0.005,0,0.008,0c2.697,0,5.19,3.24,5.677,7.382c0.301,2.554-0.255,4.908-1.487,6.296
			c-0.708,0.799-1.593,1.223-2.56,1.225C302.044,251.67,302.041,251.67,302.038,251.67z M300.416,237.768c-0.002,0-0.004,0-0.006,0
			c-0.682,0.002-1.292,0.301-1.813,0.889c-1.029,1.161-1.505,3.274-1.241,5.515c0.415,3.524,2.559,6.499,4.683,6.499
			c0.002,0,0.004,0,0.006,0c0.683-0.002,1.293-0.301,1.813-0.888c1.03-1.161,1.506-3.274,1.242-5.516h-0.001
			C304.685,240.742,302.541,237.768,300.416,237.768z"/>
		<path style="opacity:0.2;" d="M295.416,218.814l-4.948,0.638c0.113,0.216,0.247,0.432,0.381,0.638
			c0.936,1.502,3.024,2.489,5.143,2.849C295.457,221.777,295.437,220.326,295.416,218.814z"/>
		<path style="fill:#263238;" d="M301.836,205.95c2.754,0.465,7.896-2.664,6.696-6.821c-1.543,1.929-6.696,1.286-6.696,1.286V205.95
			z"/>
		<path style="fill:#263238;" d="M291.096,210.403c0.3,2.776-3.129,7.724-7.207,6.279c2.017-1.426,1.682-6.608,1.682-6.608
			L291.096,210.403z"/>
		<path style="fill:#B55B52;" d="M287.066,204.981c-0.739,5.944-1.474,9.385,0.93,12.957c3.615,5.373,11.373,4.039,13.873-1.564
			c2.25-5.044,3.081-13.917-2.234-17.332C294.399,195.677,287.805,199.037,287.066,204.981z"/>
		<path style="fill:#263238;" d="M286.25,210.957c1.452,1.529,5.44-4.714,4.711-6.943c1.5,0.651,4.381-0.6,4.2-3.086
			c4.492,2.4,10.995,4.303,11.1-0.043c0.106-4.346-4.001-7.543-8.022-7.886c0.479,1.286-0.79,1.843-3.396,1.286
			c-2.606-0.557-12.676-5.175-11.561,4.071C279.544,198.605,279.046,203.372,286.25,210.957z"/>
		<path style="fill:#B55B52;" d="M283.308,208.695c0.21,1.601,1.139,2.957,2.204,3.749c1.602,1.191,2.596-0.072,2.748-1.957
			c0.137-1.697-0.012-4.36-1.908-4.808C284.486,205.237,283.069,206.864,283.308,208.695z"/>
		<path style="fill:#263238;" d="M292.379,280.009l21.163-1.573c0,0,2.734,43.429,2.528,61.848
			c-0.211,19.152-8.973,66.129-8.973,66.129l-10.218,0.156c0,0,0.806-45.563,0.806-64.37
			C297.686,316.868,292.379,280.009,292.379,280.009"/>
		<path style="opacity:0.2;" d="M300.559,325.149c0.278,1.255,8.146,36.463,10.687,57.025c1.358-8.548,2.746-18.134,3.682-26.599
			L300.559,325.149z"/>
		<path style="fill:#263238;" d="M302.124,279.285c0,0,16.101,39.465,19.738,56.771c3.982,18.951,10.344,66.88,10.344,66.88
			l-10.921,1.708c0,0-8.278-35.831-12.902-54.138c-5.267-20.853-26.121-53.889-27.031-69.675
			C302.124,279.285,302.124,279.285,302.124,279.285z"/>
		<polygon style="fill:#407BFF;" points="333.582,403.868 320.003,407.046 318.293,401.821 333.115,399.278 		"/>
		<polygon style="fill:#407BFF;" points="308.385,406.631 296.209,406.822 296.147,402.888 309.755,402.467 		"/>
		<path style="fill:#263238;" d="M295.346,208.08c-0.09,0.479,0.091,0.914,0.404,0.972c0.313,0.059,0.639-0.282,0.728-0.76
			c0.09-0.479-0.091-0.914-0.404-0.972C295.762,207.261,295.435,207.601,295.346,208.08z"/>
		<path style="fill:#263238;" d="M301.27,209.336c-0.09,0.479,0.091,0.914,0.404,0.972c0.313,0.059,0.639-0.282,0.729-0.76
			c0.09-0.479-0.091-0.914-0.404-0.972C301.685,208.517,301.359,208.858,301.27,209.336z"/>
		<path style="fill:#A02724;" d="M299.316,209.22c0,0,0.571,2.964,1.52,4.52c-0.994,0.632-2.366,0.001-2.366,0.001L299.316,209.22z"
			/>
		<path style="fill:#263238;" d="M297.456,215.211c-1.822-0.414-2.563-1.771-2.596-1.835c-0.037-0.07-0.01-0.156,0.059-0.193
			c0.07-0.037,0.156-0.011,0.193,0.059c0.009,0.016,0.875,1.592,2.997,1.782c0.078,0.007,0.137,0.076,0.13,0.155
			c-0.007,0.079-0.077,0.137-0.155,0.13C297.861,215.289,297.652,215.256,297.456,215.211z"/>
		<path style="fill:#263238;" d="M294.756,205.935c-0.045-0.015-0.087-0.041-0.121-0.079c-0.106-0.117-0.098-0.298,0.019-0.404
			c1.17-1.064,2.451-0.746,2.505-0.732c0.153,0.04,0.244,0.196,0.204,0.349c-0.04,0.152-0.195,0.244-0.347,0.205l0,0
			c-0.042-0.01-1.043-0.248-1.977,0.601C294.959,205.947,294.851,205.967,294.756,205.935z"/>
		<path style="fill:#263238;" d="M304.459,207.848c-0.088-0.029-0.16-0.1-0.186-0.196c-0.333-1.217-1.306-1.553-1.347-1.567
			c-0.149-0.05-0.231-0.211-0.182-0.36c0.049-0.15,0.208-0.232,0.358-0.184c0.054,0.019,1.305,0.435,1.723,1.96
			c0.042,0.152-0.048,0.309-0.2,0.351C304.568,207.868,304.51,207.865,304.459,207.848z"/>
		<g>
			<path style="fill:#407BFF;" d="M334.739,410.742c-0.496,0.256-1.084,0.429-1.503,0.531c-0.056,0.014-0.115-0.008-0.149-0.054
				c-0.034-0.046-0.037-0.109-0.008-0.158c0.132-0.223,1.314-2.179,2.064-2.18c0.116,0,0.281,0.042,0.403,0.247
				c0.164,0.275,0.193,0.547,0.084,0.807C335.493,410.265,335.147,410.531,334.739,410.742z M333.512,410.905
				c1.005-0.287,1.688-0.682,1.854-1.079c0.073-0.174,0.052-0.354-0.065-0.55c-0.057-0.096-0.114-0.108-0.157-0.108
				C334.754,409.168,334.005,410.135,333.512,410.905z"/>
			<path style="fill:#407BFF;" d="M333.268,411.262c-0.024,0.013-0.052,0.018-0.08,0.015c-0.052-0.005-0.097-0.038-0.118-0.087
				c-0.029-0.068-0.699-1.682-0.339-2.513c0.094-0.216,0.248-0.365,0.457-0.443h0c0.323-0.119,0.499,0.027,0.576,0.124
				c0.422,0.539-0.045,2.268-0.444,2.856C333.307,411.235,333.288,411.251,333.268,411.262z M333.228,408.529
				c-0.104,0.054-0.182,0.14-0.234,0.262c-0.231,0.533,0.063,1.523,0.234,2.007c0.336-0.704,0.561-1.944,0.312-2.263
				c-0.023-0.029-0.076-0.097-0.252-0.033l0,0C333.267,408.51,333.247,408.519,333.228,408.529z"/>
			<path style="fill:#407BFF;" d="M304.741,414.749c-0.05-0.017-0.088-0.06-0.096-0.113c-0.009-0.06,0.02-0.119,0.074-0.148
				c0.272-0.146,2.679-1.414,3.418-1.017c0.143,0.077,0.226,0.207,0.242,0.377l0,0c0.026,0.284-0.06,0.52-0.257,0.699
				c-0.652,0.596-2.386,0.386-3.361,0.207C304.754,414.752,304.747,414.751,304.741,414.749z M307.948,413.7
				c-0.457-0.15-1.765,0.372-2.715,0.843c1.336,0.201,2.328,0.127,2.694-0.208c0.129-0.118,0.183-0.269,0.165-0.462
				c-0.007-0.075-0.034-0.12-0.093-0.151C307.985,413.713,307.967,413.706,307.948,413.7z"/>
			<path style="fill:#407BFF;" d="M304.741,414.749c-0.013-0.004-0.025-0.01-0.037-0.018c-0.042-0.029-0.065-0.078-0.061-0.129
				c0.006-0.069,0.143-1.697,0.901-2.339c0.231-0.196,0.497-0.283,0.789-0.258l0,0c0.394,0.034,0.51,0.231,0.539,0.391
				c0.121,0.681-1.302,2.008-2.025,2.346C304.813,414.758,304.775,414.76,304.741,414.749z M306.455,412.317
				c-0.037-0.012-0.085-0.022-0.146-0.027l0,0c-0.217-0.019-0.406,0.044-0.579,0.191c-0.498,0.422-0.698,1.397-0.768,1.873
				c0.736-0.458,1.701-1.499,1.629-1.908C306.585,412.421,306.574,412.356,306.455,412.317z M306.32,412.147l0.003,0.001
				L306.32,412.147z"/>
		</g>
		<g>
			<path style="fill:#B55B52;" d="M286.611,235.878c-1.994,3.551-3.998,7.341-5.796,11.069c-1.817,3.74-3.468,7.544-4.657,11.286
				c-0.147,0.466-0.259,0.924-0.393,1.388c-0.057,0.21-0.147,0.509-0.177,0.647c-0.017,0.119-0.066,0.224-0.081,0.354
				c-0.081,0.502-0.075,1.152,0.058,1.888c0.28,1.478,1.021,3.198,1.949,4.87c1.892,3.351,4.525,6.727,7.216,9.788l-2.897,3.485
				c-3.829-2.604-7.21-5.55-10.182-9.356c-1.446-1.927-2.815-4.05-3.674-6.757c-0.422-1.351-0.707-2.874-0.628-4.531
				c0.012-0.409,0.077-0.836,0.127-1.253c0.056-0.395,0.115-0.618,0.174-0.935c0.121-0.587,0.227-1.189,0.363-1.765
				c1.105-4.601,2.725-8.835,4.539-12.938c1.842-4.116,3.846-7.999,6.199-11.923L286.611,235.878z"/>
			<g>
				<g>
					<path style="fill:#407BFF;" d="M280.327,227.694c-5.565,1.524-11.032,17.174-11.032,17.174l13.401,3.718
						c0,0,2.954-3.739,5.578-10.719C291.133,230.262,287.069,225.848,280.327,227.694z"/>
				</g>
				<g style="opacity:0.2;">
					<path d="M280.327,227.694c-5.565,1.524-11.032,17.174-11.032,17.174l13.401,3.718c0,0,2.954-3.739,5.578-10.719
						C291.133,230.262,287.069,225.848,280.327,227.694z"/>
				</g>
			</g>
			<path style="fill:#B55B52;" d="M282.162,276.139l6.116,1.61l-2.428,5.754c0,0-5.493-1.164-5.455-4.158L282.162,276.139z"/>
			<polygon style="fill:#B55B52;" points="290.628,281.653 288.822,286.199 285.849,283.503 288.277,277.749 			"/>
		</g>
	</g>
</g>
</svg>
